<?xml version="1.0" encoding="UTF-8"?><svg id="Layer_1" xmlns="http://www.w3.org/2000/svg" viewBox="0 0 300 150"><defs><style>.cls-1{fill:none;}.cls-1,.cls-2{stroke:#000;stroke-miterlimit:10;stroke-width:4px;}</style></defs><circle class="cls-2" cx="69.41" cy="59.64" r="2.69"/><circle class="cls-2" cx="85.96" cy="62.33" r="2.69"/><path class="cls-1" d="m76.25,79.7l-29.36-22.34s7.39,35.43,33.69,44.68c26.31,9.26,118.86,3.19,130.35,0,11.49-3.19,26.81-15,26.81-15,0,0,5.74,9.89,15.64,10.21,9.89.32,9.57-23.62,9.57-23.62,0,0,1.28-16.6-9.57-16.28s-13.4,9.57-13.4,9.57c0,0-22.66-17.23-45.96-18.51h-127.34"/><path class="cls-1" d="m120.62,56.08s5.42-13.72,30.96-19.79c25.53-6.06,61.6.32,68.94,3.83,7.34,3.51,20.74,12.13,20.74,12.13l-11.37,15"/><path class="cls-1" d="m228.32,93.55l7.19,9.13s-46.28,27.38-100.21,4.28"/><polyline class="cls-1" points="128.59 91.82 180.93 72.99 128.59 72.99"/><line class="cls-2" x1="54.55" y1="70.44" x2="37" y2="74.91"/><line class="cls-2" x1="60.93" y1="77.69" x2="43.7" y2="87.68"/></svg>