<?xml version="1.0" encoding="UTF-8"?><svg id="Layer_1" xmlns="http://www.w3.org/2000/svg" viewBox="0 0 300 150"><defs><style>.cls-1{fill:#252525;}.cls-1,.cls-2,.cls-3{stroke:#252525;stroke-miterlimit:10;stroke-width:3px;vector-effect:non-scaling-stroke;}.cls-2{fill:none;}</style></defs><circle class="cls-1" cx="74.03" cy="71.55" r="2.69"/><circle class="cls-1" cx="57.7" cy="68.07" r="2.69"/><path class="cls-2" d="m62.53,57.86c9.89-13.72,37.02-13.4,37.02-13.4h78.51c16.91,0,34.15,12.45,34.15,12.45,36.38-35.74,46.28,7.34,45.96,21.38s-8.94,32.87-23.94,32.94-26.81-11.23-26.81-11.23c-23.3,12.77-37.02,11.17-37.02,11.17h-95.43s-26.41-.96-33.15-27.45l24.22,8.62"/><path class="cls-3" d="m48.14,85.95s-.29-3.91,2.58-8.82"/><path class="cls-2" d="m92.57,87.86s36.34,20.43,44.64,7.34c8.3-13.09-7.66-20.86-17.23-20.96"/><path class="cls-2" d="m117.42,52.75s4.95-23.3,22.1-23.94c17.15-.64,16.52,23.94,16.52,23.94"/><path class="cls-2" d="m182.59,44.37s18.96-28.89,21.72,7.74"/><path class="cls-2" d="m182.59,109.85s8.46,14.07,16.64,10.88c8.19-3.19,4.02-18.56,4.02-18.56"/></svg>