<?xml version="1.0" encoding="UTF-8"?><svg id="Layer_1" xmlns="http://www.w3.org/2000/svg" viewBox="0 0 300 150"><defs><style>.cls-1{fill:#252525;}.cls-1,.cls-2{stroke:#252525;stroke-miterlimit:10;stroke-width:3px;vector-effect:non-scaling-stroke;}.cls-2{fill:none;}</style></defs><circle class="cls-1" cx="80.98" cy="62.6" r="2.69"/><circle class="cls-1" cx="66.3" cy="57.22" r="2.69"/><path class="cls-2" d="m75.96,81.08s-8.63-16.91-18.56-12.77-5.78,19.79-3.55,23.62c2.23,3.83,7.89,6.64,11.15,7.34,32.59,7.01,107.75,1.6,149.81-9.57,0,0,7.55,12.71,20,12.71s13.4-16.86,14.04-28.03c.64-11.17-1.91-24.26-14.04-24.26s-18.19,10.85-18.19,10.85c0,0-26.81-18.83-72.77-16.6-45.96,2.23-62.64.64-70.58,6.06"/><path class="cls-2" d="m90.77,52.18l-1.16-29.18s44.67.32,53.6,27.45"/><path class="cls-2" d="m157.89,49.96v-21.54s37.03,1.82,45.32,25.64"/><path class="cls-2" d="m84.81,102.41l-5.38,13.78s11.21,5.11,28.72,0l-5.79-13.78"/><path class="cls-2" d="m114.49,83.63s32.73,10.11,35.51,18.78c2.79,8.67-14.13,12.25-13.81,16.05.32,3.79,17.88,11.13,35.43,7.62s18.42-19.14,18.83-27.45c.18-3.73,1.44-19.79-35.35-23.62"/></svg>