<?xml version="1.0" encoding="UTF-8"?><svg id="Layer_1" xmlns="http://www.w3.org/2000/svg" viewBox="0 0 300 150"><defs><style>.cls-1{fill:#252525;}.cls-1,.cls-2{stroke:#252525;stroke-miterlimit:10;stroke-width:3px;vector-effect:non-scaling-stroke;}.cls-2{fill:none;}</style></defs><circle class="cls-1" cx="93.37" cy="79.12" r="2.69"/><circle class="cls-1" cx="67.04" cy="76.95" r="2.69"/><path class="cls-2" d="m75.68,70.25c15.32-9.89,30.32-14.35,49.15-14.36,19.76-.01,47.33,8.89,63.58,15.24,28.12,10.99,43.5,17.26,48.95,18.59,10.53,2.55,27.83-12.77,27.83-12.77v41.17c-20.74-10.85-31.66-10.84-31.66-10.84H34.82l61.28-9.57s-29.04-16.09-53.3-8.53"/><path class="cls-2" d="m123.87,89.33s15.96,10.21,30,9.89c14.04-.32,16.91-7.37,12.45-14.7-4.47-7.33-27.13-5.09-27.13-5.09"/><line class="cls-2" x1="107.02" y1="62.52" x2="96.67" y2="31.88"/><line class="cls-2" x1="90.58" y1="68.24" x2="75.73" y2="39.39"/><polyline class="cls-2" points="176.34 66.73 215.98 60.15 222.4 84.45"/></svg>