<?xml version="1.0" encoding="UTF-8"?><svg id="Layer_1" xmlns="http://www.w3.org/2000/svg" viewBox="0 0 300 150"><defs><style>.cls-1{fill:#252525;}.cls-1,.cls-2{stroke:#252525;stroke-miterlimit:10;stroke-width:3px;}.cls-2{fill:none;}</style></defs><circle class="cls-1" cx="70.28" cy="58.57" r="2.69"/><circle class="cls-1" cx="87.19" cy="63.95" r="2.69"/><path class="cls-2" d="m67.86,47.17c-19.79-18.51,34.15-18.51,82.14-14.68,47.99,3.83,68.18,18.51,68.18,18.51,0,0,13.72-14.36,28.72-14.36s21.7,22.66,21.7,35.74-5.11,34.79-21.06,35.15-29.36-8.98-29.36-8.98c-52.98,23.3-130.21,22.34-148.72,21.7-18.51-.64-39.57-4.47-37.98-19.15,1.6-14.68,36.06,0,36.06,0,0,0-3.19-12.13-23.62-22.98l15.96-13.4"/><path class="cls-2" d="m102.66,82.6s33.18-22.3,37.97-18.65c4.79,3.65-18.98,32.05-18.98,32.05"/><path class="cls-2" d="m197.12,49.09l17.87-18.62c-22.02-4.57-51.94,8.72-51.94,8.72"/><path class="cls-2" d="m201.7,97.47l17.87,18.62c-22.02,4.57-51.94-8.72-51.94-8.72"/></svg>