<?xml version="1.0" encoding="UTF-8"?><svg id="Layer_1" xmlns="http://www.w3.org/2000/svg" viewBox="0 0 300 150"><defs><style>.cls-1{fill:#252525;}.cls-1,.cls-2{stroke:#252525;stroke-miterlimit:10;stroke-width:3px;}.cls-2{fill:none;}</style></defs><circle class="cls-1" cx="57.3" cy="77.06" r="2.69"/><circle class="cls-1" cx="42.72" cy="71.68" r="2.69"/><path class="cls-2" d="m50.97,64.31c144.32-10.12,208.9,31.27,219.89,41.81H53.21s-20.11.32-22.98-8.62c-2.87-8.94-1.6-31.91,22.66-5.11"/><path class="cls-2" d="m82.25,106.12s10.39,15.64,67.75,16.28"/><path class="cls-2" d="m90.55,93.67s15.64,4.19,19.79-8.6c4.15-12.79-19.79-8.01-19.79-8.01"/><path class="cls-2" d="m270.87,106.12c-26.81-36.7-111.7-57.13-160.05-61.91-48.35-4.79-45.44,19.25-45.44,19.25"/><path class="cls-2" d="m58.91,63.81s-13.74-17.7,6.68-36.21"/></svg>