<?xml version="1.0" encoding="UTF-8"?><svg id="Layer_1" xmlns="http://www.w3.org/2000/svg" viewBox="0 0 200 200"><defs><style>.cls-1{fill:#252525;}.cls-1,.cls-2{stroke:#252525;stroke-miterlimit:10;stroke-width:6px;vector-effect:non-scaling-stroke;}.cls-2{fill:none;}</style></defs><circle class="cls-2" cx="100" cy="100" r="78.33"/><path class="cls-2" d="m28.8,108.4c2.98,1.31,6.28,2.03,9.74,2.04,0,0,.01,0,.02,0,9.98,0,18.55-6.01,22.3-14.61,1.3-2.97,2.02-6.26,2.02-9.71"/><path class="cls-2" d="m137.13,86.12c0,3.45.72,6.73,2.02,9.71,3.75,8.6,12.32,14.61,22.3,14.61,0,0,.01,0,.02,0,3.36,0,6.55-.68,9.46-1.92"/><line class="cls-2" x1="172.81" y1="100" x2="197.5" y2="100"/><line class="cls-2" x1="2.5" y1="100" x2="27.19" y2="100"/><line class="cls-2" x1="15.56" y1="148.75" x2="36.91" y2="136.42"/><line class="cls-2" x1="136.39" y1="36.97" x2="148.75" y2="15.56"/><line class="cls-2" x1="51.25" y1="184.44" x2="63.57" y2="163.1"/><line class="cls-2" x1="100" y1="27.24" x2="100" y2="2.5"/><line class="cls-2" x1="100" y1="197.5" x2="100" y2="172.86"/><line class="cls-2" x1="63.61" y1="36.97" x2="51.25" y2="15.56"/><line class="cls-2" x1="148.75" y1="184.44" x2="136.43" y2="163.1"/><line class="cls-2" x1="184.44" y1="148.75" x2="163.09" y2="136.42"/><circle class="cls-1" cx="83.6" cy="65.98" r="6.12"/><circle class="cls-1" cx="116.4" cy="65.98" r="6.12"/><path class="cls-2" d="m44.66,54.59s-12.39-25.61-24.16-19.8C8.72,40.6-.47,57.83,3.4,63.97c3.87,6.14,27.58,11.36,27.58,11.36"/><path class="cls-2" d="m155.34,54.59s12.39-25.61,24.16-19.8c11.77,5.81,20.97,23.04,17.1,29.19s-27.58,11.36-27.58,11.36"/><path class="cls-2" d="m139.1,95.71c-11.19,8.75-24.61,13.97-39.1,13.97s-27.91-5.22-39.1-13.97"/><path class="cls-2" d="m38.56,110.43s0,0,0,0c4.97,29.46,30.57,51.92,61.44,51.92s56.48-22.45,61.44-51.92c0,0,0,0,0,0"/></svg>