<?xml version="1.0" encoding="UTF-8"?><svg id="Layer_1" xmlns="http://www.w3.org/2000/svg" viewBox="0 0 300 150"><defs><style>.cls-1{fill:#252525;}.cls-1,.cls-2{stroke:#252525;stroke-miterlimit:10;stroke-width:3px;vector-effect:non-scaling-stroke;}.cls-2{fill:none;}</style></defs><path class="cls-2" d="m25.64,97.96h215.32s3.4,17.23,22.55,18.51c0,0-3.19-36.38,10.85-54.26,0,0-26.81-1.28-31.91,15.32,0,0-73.71-37.66-148.39-3.83"/><polyline class="cls-2" points="143.51 67.96 179.26 33.49 194.57 73.7"/><path class="cls-2" d="m124.36,88.77s15.96,28.98,29.36,27.7c13.4-1.28,53.62-27.7,53.62-27.7"/><line class="cls-2" x1="61.49" y1="86.31" x2="61.49" y2="108.91"/><line class="cls-2" x1="77.36" y1="86.31" x2="77.36" y2="108.91"/><line class="cls-2" x1="45.89" y1="86.31" x2="45.89" y2="108.91"/><circle class="cls-1" cx="102.13" cy="86.31" r="2.69"/><circle class="cls-1" cx="86.69" cy="83.62" r="2.69"/><polyline class="cls-2" points="230.13 72.29 226.81 49.45 208.45 65.4"/></svg>