<?xml version="1.0" encoding="UTF-8"?><svg id="Layer_1" xmlns="http://www.w3.org/2000/svg" viewBox="0 0 300 150"><defs><style>.cls-1{fill:#252525;}.cls-1,.cls-2{stroke:#252525;stroke-miterlimit:10;stroke-width:3px;}.cls-2{fill:none;}</style></defs><circle class="cls-1" cx="81.77" cy="78.82" r="2.69"/><circle class="cls-1" cx="63.08" cy="76.13" r="2.69"/><path class="cls-2" d="m39.54,77.68c8.19,12.01,27.8,15.17,27.8,15.17-16.97,2.84-36-4.43-36-4.43,1.76,20.23,68.19,16.75,68.19,16.75h137.25s21.33,7.28,31.86,10.44l-5.5-28.04,5.5-32-28.91,17.85s-45.86-23.25-101.11-24.33c-9.91-.19-39.68-.84-49.6,9.87-2.72,2.93-5.62,6.47-19.24,8.51"/><path class="cls-2" d="m132.31,105.18s33.65,18.65,45.07,11.38c11.41-7.27-3.22-11.38-3.22-11.38"/><polyline class="cls-2" points="150.38 55.24 185.94 31.75 184.77 61.37"/><path class="cls-2" d="m105.96,111.71c10.4-12.89,8.49-38.62-3.83-66.69"/></svg>