<?xml version="1.0" encoding="UTF-8"?><svg id="Layer_1" xmlns="http://www.w3.org/2000/svg" viewBox="0 0 300 150"><defs><style>.cls-1{fill:none;stroke-width:3.81px;}.cls-1,.cls-2{stroke:#000;stroke-miterlimit:10;}.cls-2{stroke-width:4px;}</style></defs><circle class="cls-2" cx="81.39" cy="78.82" r="2.69"/><circle class="cls-2" cx="62.7" cy="76.13" r="2.69"/><path class="cls-1" d="m39.16,77.68c8.19,12.01,27.8,15.17,27.8,15.17-16.97,2.84-36-4.43-36-4.43,1.76,20.23,68.19,16.75,68.19,16.75h137.25s20.92,5.21,31.46,8.37l-10.24-31.7,11.41-30.73-28.61,18.88s-46.92-19.82-102.17-20.9c-9.91-.19-39.68-.84-49.6,9.87-2.72,2.93-5.62,6.47-19.24,8.51"/><path class="cls-1" d="m131.93,105.18s33.65,18.65,45.07,11.38c11.41-7.27-3.22-11.38-3.22-11.38"/><polyline class="cls-1" points="150 55.24 185.55 31.75 184.38 61.37"/><path class="cls-1" d="m105.57,111.71c10.4-12.89,8.49-38.62-3.83-66.69"/></svg>