<?xml version="1.0" encoding="UTF-8"?><svg id="Layer_1" xmlns="http://www.w3.org/2000/svg" viewBox="0 0 300 150"><defs><style>.cls-1{fill:#252525;}.cls-1,.cls-2{stroke:#252525;stroke-miterlimit:10;stroke-width:3px;vector-effect:non-scaling-stroke;}.cls-2{fill:none;}</style></defs><circle class="cls-1" cx="78.63" cy="74.7" r="2.69"/><circle class="cls-1" cx="64.05" cy="71.17" r="2.69"/><path class="cls-2" d="m51.44,76.11c-41.65,16.28,1.44,13.72,1.44,13.72h164.15s1.17,15.32,28.3,17.23c0,0-10.21-13.4-6.06-25.21s27.45-30,27.45-30c-41.17.96-46.91,21.38-46.91,21.38-4.15-11.81-17.23-11.49-17.23-11.49,0,0-105.32-.24-118.72,0,0,0-5.18.96-8.37,2.55"/><path class="cls-2" d="m73.25,83.13s-4.29,13.72,5.38,21.06"/><path class="cls-2" d="m61.83,83.13s-4.29,13.72,5.38,21.06"/><path class="cls-2" d="m91.81,83.13s5.43,22.34,29.04,23.94c23.62,1.6-4.23-25.21-4.23-25.21"/><path class="cls-2" d="m165.95,83.13s5.43,22.34,29.04,23.94c23.62,1.6-4.23-25.21-4.23-25.21"/><path class="cls-2" d="m200,61.75c0-7.28,13.72-18.51,13.72-18.51-28.72-3.51-42.55,18.45-42.55,18.45"/></svg>