<?xml version="1.0" encoding="UTF-8"?><svg id="Layer_1" xmlns="http://www.w3.org/2000/svg" viewBox="0 0 300 150"><defs><style>.cls-1{fill:#252525;}.cls-1,.cls-2{stroke:#252525;stroke-miterlimit:10;stroke-width:3px;vector-effect:non-scaling-stroke;}.cls-2{fill:none;}</style></defs><circle class="cls-1" cx="73.72" cy="72.22" r="2.69"/><circle class="cls-1" cx="58.56" cy="64.15" r="2.69"/><path class="cls-2" d="m70.05,59.95c106.28-24.57,158.62,18.19,158.62,18.19,2.55-15,29.36-28.09,29.36-28.09,0,0-17.2,28.27-7.98,65.74l-22.02-21.06c-127.98,63.83-186.06-10.21-186.06-10.21l26.13,4.79-21.35-19.15"/><polyline class="cls-2" points="109.95 59.95 113.46 29.32 145.54 59.51"/><polyline class="cls-2" points="167.23 54.96 186.17 39.56 198.99 62.99"/><path class="cls-2" d="m99.1,88.04s15-26.81,75-8.62c0,0-21.7,2.55-24.1,12.13"/></svg>